<?xml version="1.0" encoding="UTF-8" standalone="no"?>
<svg
   xmlns:dc="http://purl.org/dc/elements/1.1/"
   xmlns:cc="http://creativecommons.org/ns#"
   xmlns:rdf="http://www.w3.org/1999/02/22-rdf-syntax-ns#"
   xmlns:svg="http://www.w3.org/2000/svg"
   xmlns="http://www.w3.org/2000/svg"
   xmlns:sodipodi="http://sodipodi.sourceforge.net/DTD/sodipodi-0.dtd"
   xmlns:inkscape="http://www.inkscape.org/namespaces/inkscape"
   width="141.94507mm"
   height="54.629456mm"
   viewBox="0 0 141.94507 54.629456"
   version="1.1"
   id="svg8"
   inkscape:version="1.0.2 (e86c870879, 2021-01-15, custom)"
   sodipodi:docname="drawing.svg"
   shape-rendering="crispEdges">
  <defs
     id="defs2" />
  <sodipodi:namedview
     id="base"
     pagecolor="#ffffff"
     bordercolor="#666666"
     borderopacity="1.0"
     inkscape:pageopacity="0.0"
     inkscape:pageshadow="2"
     inkscape:zoom="0.5"
     inkscape:cx="365.31166"
     inkscape:cy="-142.92147"
     inkscape:document-units="mm"
     inkscape:current-layer="layer1"
     inkscape:document-rotation="0"
     showgrid="false"
     inkscape:snap-grids="false"
     inkscape:window-width="1024"
     inkscape:window-height="1257"
     inkscape:window-x="1760"
     inkscape:window-y="57"
     inkscape:window-maximized="1"
     fit-margin-top="0"
     fit-margin-left="0"
     fit-margin-right="0"
     fit-margin-bottom="0" />
  <metadata
     id="metadata5">
    <rdf:RDF>
      <cc:Work
         rdf:about="">
        <dc:format>image/svg+xml</dc:format>
        <dc:type
           rdf:resource="http://purl.org/dc/dcmitype/StillImage" />
        <dc:title></dc:title>
      </cc:Work>
    </rdf:RDF>
  </metadata>
  <g
     inkscape:label="Layer 1"
     inkscape:groupmode="layer"
     id="layer1"
     transform="translate(-10.627035,-80.692588)">
    <g
       id="g1713">
      <path
         style="fill:#ffffff;fill-opacity:1;stroke:#ffffff;stroke-width:0.437986;stroke-linecap:butt;stroke-linejoin:round;stroke-miterlimit:0;stroke-dasharray:none;paint-order:normal"
         id="path877-6"
         d="m 57.567954,86.057369 c 0.748828,0.145897 1.523895,0.141351 2.277238,0.02969 0.283496,-0.04202 0.563274,-0.106119 0.844908,-0.159179 1.884711,-0.425445 3.653629,-1.212302 5.368139,-2.084216 0.205725,-0.112709 0.411923,-0.224563 0.617183,-0.338124 0.349471,-0.193351 0.713418,-0.407527 1.073518,-0.582166 0.611629,-0.296625 1.245197,-0.523544 1.887154,-0.743365 1.491609,-0.496076 3.035035,-0.789257 4.583394,-1.038287 0.742026,-0.11547 1.488546,-0.209229 2.239621,-0.230141 0,0 1.024503,0.742604 1.024503,0.742604 v 0 c -0.768628,-0.0041 -1.534672,0.0725 -2.296741,0.168534 -1.549601,0.217538 -3.089727,0.511081 -4.57421,1.018044 -0.630983,0.222804 -1.249509,0.456199 -1.853761,0.74539 -0.384976,0.184248 -0.715052,0.368795 -1.09419,0.566777 -0.212015,0.110713 -0.425143,0.219284 -0.637718,0.328927 -1.7422,0.832417 -3.517367,1.618865 -5.392549,2.103502 -0.276059,0.06073 -0.550223,0.130806 -0.828172,0.182172 -0.717211,0.132541 -1.454249,0.169915 -2.179504,0.08615 0,0 -1.058813,-0.796314 -1.058813,-0.796314 z" />
      <path
         style="fill:#ffffff;fill-opacity:1;stroke:#ffffff;stroke-width:0.506148;stroke-linecap:square;stroke-linejoin:round;stroke-miterlimit:4;stroke-dasharray:none;stroke-opacity:1;paint-order:stroke markers fill"
         id="path1286-4"
         d="m 65.940934,84.998058 c -0.380528,0.178461 -0.681841,0.482741 -0.968341,0.782605 -0.285082,0.331946 -0.542779,0.695562 -0.723352,1.095408 -0.145129,0.347057 -0.187308,0.723287 -0.190338,1.096292 -0.01019,0.290154 0.05993,0.567818 0.17097,0.833242 0.08438,0.195263 0.229878,0.346716 0.367449,0.504393 0.120301,0.143035 0.255254,0.274564 0.408232,0.382292 0.02079,0.01883 0.04157,0.03759 0.06236,0.05642 0,0 -0.860579,-0.348568 -0.860579,-0.348568 v 0 c -0.0216,-0.01737 -0.04319,-0.03475 -0.06479,-0.05213 -0.143827,-0.119943 -0.276565,-0.251061 -0.394781,-0.396671 -0.141802,-0.162516 -0.279191,-0.328395 -0.354546,-0.533946 -0.09803,-0.277205 -0.155502,-0.561964 -0.140595,-0.858001 0.01316,-0.384203 0.05439,-0.772712 0.206387,-1.129812 0.189988,-0.406587 0.47044,-0.765764 0.753566,-1.111384 0.286128,-0.30957 0.590525,-0.605099 0.94661,-0.834472 0,0 0.781728,0.514347 0.781728,0.514347 z" />
      <path
         style="fill:#ffffff;fill-opacity:1;stroke:#ffffff;stroke-width:0.750001;stroke-linecap:square;stroke-linejoin:round;stroke-miterlimit:4;stroke-dasharray:none;stroke-opacity:1;paint-order:stroke markers fill"
         id="path1406"
         d="m 49.028487,81.619158 c -0.07665,-0.02974 -0.151,-0.06476 -0.223898,-0.10269 -0.05673,-0.02965 -0.112745,-0.06123 -0.172519,-0.08454 -0.041,-0.01598 -0.05226,-0.0181 -0.09437,-0.03003 -0.04405,-0.01109 -0.08887,-0.01881 -0.1339,-0.02461 -0.02331,-0.003 -0.0456,-0.0055 -0.06907,-0.006 -0.0093,-2.25e-4 -0.01868,2.65e-4 -0.02803,5.29e-4 0,0 -0.04501,0.03292 -0.04501,0.03292 v 0 c 0.0095,-5.29e-4 0.01902,-0.0013 0.02855,-0.0013 0.02455,-1.27e-4 0.04598,0.0019 0.07049,0.0044 0.04534,0.0049 0.09046,0.01212 0.13476,0.02312 0.04283,0.01183 0.05236,0.01328 0.09395,0.02949 0.0596,0.02323 0.115491,0.05482 0.172051,0.08439 0.04223,0.02186 0.08471,0.04298 0.127616,0.06347 0.0063,0.003 0.05954,0.02812 0.06872,0.03269 0.0071,0.0035 0.01402,0.0074 0.02103,0.01106 0,0 0.04962,-0.03278 0.04962,-0.03278 z" />
      <path
         style="fill:#ffffff;fill-opacity:1;stroke:#ffffff;stroke-width:0.437986;stroke-linecap:butt;stroke-linejoin:round;stroke-miterlimit:0;stroke-dasharray:none;paint-order:normal"
         id="path877-6-9"
         d="m 57.567954,97.732862 c 0.748828,-0.145892 1.523895,-0.14135 2.277238,-0.02969 0.283496,0.04204 0.563274,0.106122 0.844908,0.15918 1.884711,0.425447 3.653629,1.212304 5.368139,2.08422 0.205725,0.112708 0.411923,0.224558 0.617183,0.338128 0.349471,0.19334 0.713418,0.40752 1.073518,0.58216 0.611629,0.29662 1.245197,0.52354 1.887154,0.74336 1.491609,0.49608 3.035035,0.78926 4.583394,1.03829 0.742026,0.11547 1.488546,0.20923 2.239621,0.23014 0,0 1.024503,-0.7426 1.024503,-0.7426 v 0 c -0.768628,0.004 -1.534672,-0.0725 -2.296741,-0.16854 -1.549601,-0.21753 -3.089727,-0.51108 -4.57421,-1.01804 -0.630983,-0.22281 -1.249509,-0.4562 -1.853761,-0.74539 -0.384976,-0.18425 -0.715052,-0.368793 -1.09419,-0.566777 -0.212015,-0.110711 -0.425143,-0.219283 -0.637718,-0.328928 -1.7422,-0.832417 -3.517367,-1.618862 -5.392549,-2.103505 -0.276059,-0.06074 -0.550223,-0.130809 -0.828172,-0.182173 -0.717211,-0.132543 -1.454249,-0.169917 -2.179504,-0.08615 0,0 -1.058813,0.796322 -1.058813,0.796322 z" />
      <path
         style="fill:#ffffff;fill-opacity:1;stroke:#ffffff;stroke-width:0.506148;stroke-linecap:square;stroke-linejoin:round;stroke-miterlimit:4;stroke-dasharray:none;stroke-opacity:1;paint-order:stroke markers fill"
         id="path1286-4-6"
         d="m 65.940934,98.792174 c -0.380528,-0.17846 -0.681841,-0.482736 -0.968341,-0.782605 -0.285082,-0.331945 -0.542779,-0.695564 -0.723352,-1.095414 -0.145129,-0.347055 -0.187308,-0.723285 -0.190338,-1.096288 -0.01019,-0.290158 0.05993,-0.567817 0.17097,-0.83324 0.08438,-0.195265 0.229878,-0.346718 0.367449,-0.504393 0.120301,-0.143037 0.255254,-0.274568 0.408232,-0.382297 0.02079,-0.01883 0.04157,-0.03759 0.06236,-0.05642 0,0 -0.860579,0.348567 -0.860579,0.348567 v 0 c -0.0216,0.01734 -0.04319,0.03476 -0.06479,0.0521 -0.143827,0.119943 -0.276565,0.251063 -0.394781,0.396671 -0.141802,0.162521 -0.279191,0.328395 -0.354546,0.533952 -0.09803,0.2772 -0.155502,0.561958 -0.140595,0.858001 0.01316,0.384199 0.05439,0.772711 0.206387,1.129808 0.189988,0.406595 0.47044,0.765771 0.753566,1.111389 0.286128,0.309573 0.590525,0.605102 0.94661,0.834475 0,0 0.781728,-0.514347 0.781728,-0.514347 z" />
      <ellipse
         style="fill:#ffffff;fill-opacity:1;stroke:#ffffff;stroke-width:0.527314;stroke-linecap:square;stroke-linejoin:round;stroke-miterlimit:4;stroke-dasharray:none;stroke-opacity:1;paint-order:stroke markers fill"
         id="path1538"
         cx="59.190453"
         cy="91.808647"
         rx="2.8265777"
         ry="3.0121651" />
      <rect
         style="fill:#ffffff;fill-opacity:1;stroke:#ffffff;stroke-width:0.616;stroke-linecap:square;stroke-linejoin:round;stroke-miterlimit:4;stroke-dasharray:none;stroke-opacity:1;paint-order:stroke markers fill"
         id="rect1540"
         width="43.89986"
         height="1.7893611"
         x="10.935035"
         y="91.114174" />
      <rect
         style="fill:#ffffff;fill-opacity:1;stroke:#ffffff;stroke-width:0.616;stroke-linecap:square;stroke-linejoin:round;stroke-miterlimit:4;stroke-dasharray:none;stroke-opacity:1;paint-order:stroke markers fill"
         id="rect1540-9"
         width="43.89986"
         height="1.7893611"
         x="91.114174"
         y="10.935035"
         transform="matrix(0,1,1,0,0,0)" />
      <path
         style="fill:#ffffff;fill-opacity:1;stroke:#ffffff;stroke-width:0.437986;stroke-linecap:butt;stroke-linejoin:round;stroke-miterlimit:0;stroke-dasharray:none;paint-order:normal"
         id="path877-6-8"
         d="m 105.63117,86.05738 c -0.74883,0.1459 -1.5239,0.14135 -2.27724,0.0297 -0.2835,-0.042 -0.56327,-0.10612 -0.84491,-0.15918 -1.88471,-0.42544 -3.653627,-1.2123 -5.368137,-2.08421 -0.20572,-0.11271 -0.41192,-0.22456 -0.61718,-0.33813 -0.34947,-0.19335 -0.71342,-0.40752 -1.07352,-0.58216 -0.61163,-0.29663 -1.24519,-0.52355 -1.88715,-0.74337 -1.49161,-0.49607 -3.03504,-0.78925 -4.58339,-1.03828 -0.74203,-0.11547 -1.48855,-0.20923 -2.23963,-0.23014 0,0 -1.0245,0.7426 -1.0245,0.7426 v 0 c 0.76863,-0.004 1.53467,0.0725 2.29674,0.16853 1.5496,0.21754 3.08973,0.51108 4.57421,1.01805 0.63099,0.2228 1.24951,0.4562 1.85376,0.74539 0.38498,0.18424 0.71506,0.36879 1.09419,0.56677 0.21202,0.11072 0.42515,0.21929 0.63772,0.32893 1.7422,0.83242 3.51737,1.61887 5.392547,2.1035 0.27606,0.0607 0.55022,0.13081 0.82817,0.18217 0.71721,0.13255 1.45425,0.16992 2.17951,0.0862 0,0 1.05881,-0.79631 1.05881,-0.79631 z" />
      <path
         style="fill:#ffffff;fill-opacity:1;stroke:#ffffff;stroke-width:0.506148;stroke-linecap:square;stroke-linejoin:round;stroke-miterlimit:4;stroke-dasharray:none;stroke-opacity:1;paint-order:stroke markers fill"
         id="path1286-4-3"
         d="m 97.258193,84.99807 c 0.38053,0.17846 0.68184,0.48274 0.96834,0.78261 0.28508,0.33194 0.54278,0.69556 0.72335,1.0954 0.14513,0.34706 0.18731,0.72329 0.19034,1.0963 0.0102,0.29015 -0.0599,0.56782 -0.17097,0.83324 -0.0844,0.19526 -0.22988,0.34672 -0.36745,0.50439 -0.1203,0.14304 -0.25525,0.27457 -0.40823,0.38229 -0.0208,0.0188 -0.0416,0.0376 -0.0624,0.0564 0,0 0.86058,-0.34856 0.86058,-0.34856 v 0 c 0.0216,-0.0174 0.0432,-0.0348 0.0648,-0.0521 0.14383,-0.11995 0.27656,-0.25107 0.39478,-0.39667 0.1418,-0.16252 0.27919,-0.3284 0.35455,-0.53395 0.098,-0.27721 0.1555,-0.56196 0.14059,-0.858 -0.0132,-0.38421 -0.0544,-0.77271 -0.20639,-1.12981 -0.18998,-0.40659 -0.47044,-0.76577 -0.75356,-1.11139 -0.28613,-0.30957 -0.59053,-0.6051 -0.94661,-0.83447 0,0 -0.78173,0.51435 -0.78173,0.51435 z" />
      <path
         style="fill:#ffffff;fill-opacity:1;stroke:#ffffff;stroke-width:0.750001;stroke-linecap:square;stroke-linejoin:round;stroke-miterlimit:4;stroke-dasharray:none;stroke-opacity:1;paint-order:stroke markers fill"
         id="path1406-5"
         d="m 114.17064,81.61917 c 0.0767,-0.0297 0.151,-0.0648 0.22389,-0.10269 0.0567,-0.0297 0.11275,-0.0612 0.17252,-0.0845 0.041,-0.016 0.0523,-0.0181 0.0944,-0.03 0.044,-0.0111 0.0889,-0.0188 0.1339,-0.0246 0.0233,-0.003 0.0456,-0.006 0.0691,-0.006 0.009,-2.2e-4 0.0187,2.7e-4 0.028,5.3e-4 0,0 0.045,0.0329 0.045,0.0329 v 0 c -0.01,-5.3e-4 -0.019,-0.001 -0.0285,-0.001 -0.0246,-1.3e-4 -0.046,0.002 -0.0705,0.004 -0.0453,0.005 -0.0905,0.0121 -0.13476,0.0231 -0.0428,0.0118 -0.0524,0.0133 -0.0939,0.0295 -0.0596,0.0232 -0.11549,0.0548 -0.17205,0.0844 -0.0422,0.0219 -0.0847,0.043 -0.12761,0.0635 -0.006,0.003 -0.0595,0.0281 -0.0687,0.0327 -0.007,0.004 -0.014,0.007 -0.021,0.0111 0,0 -0.0496,-0.0328 -0.0496,-0.0328 z" />
      <path
         style="fill:#ffffff;fill-opacity:1;stroke:#ffffff;stroke-width:0.437986;stroke-linecap:butt;stroke-linejoin:round;stroke-miterlimit:0;stroke-dasharray:none;paint-order:normal"
         id="path877-6-9-1"
         d="m 105.63117,97.73288 c -0.74883,-0.1459 -1.5239,-0.14135 -2.27724,-0.0297 -0.2835,0.042 -0.56327,0.10612 -0.84491,0.15918 -1.88471,0.42544 -3.653627,1.2123 -5.368137,2.08422 -0.20572,0.1127 -0.41192,0.22455 -0.61718,0.33812 -0.34947,0.19334 -0.71342,0.40752 -1.07352,0.58216 -0.61163,0.29662 -1.24519,0.52354 -1.88715,0.74336 -1.49161,0.49608 -3.03504,0.78926 -4.58339,1.03829 -0.74203,0.11547 -1.48855,0.20923 -2.23963,0.23014 0,0 -1.0245,-0.7426 -1.0245,-0.7426 v 0 c 0.76863,0.004 1.53467,-0.0725 2.29674,-0.16854 1.5496,-0.21753 3.08973,-0.51108 4.57421,-1.01804 0.63099,-0.22281 1.24951,-0.4562 1.85376,-0.74539 0.38498,-0.18425 0.71506,-0.36879 1.09419,-0.56677 0.21202,-0.11071 0.42515,-0.21929 0.63772,-0.32893 1.7422,-0.83242 3.51737,-1.61886 5.392547,-2.10351 0.27606,-0.0607 0.55022,-0.1308 0.82817,-0.18217 0.71721,-0.13254 1.45425,-0.16992 2.17951,-0.0862 0,0 1.05881,0.79632 1.05881,0.79632 z" />
      <path
         style="fill:#ffffff;fill-opacity:1;stroke:#ffffff;stroke-width:0.506148;stroke-linecap:square;stroke-linejoin:round;stroke-miterlimit:4;stroke-dasharray:none;stroke-opacity:1;paint-order:stroke markers fill"
         id="path1286-4-6-8"
         d="m 97.258193,98.79219 c 0.38053,-0.17846 0.68184,-0.48274 0.96834,-0.78261 0.28508,-0.33194 0.54278,-0.69556 0.72335,-1.09541 0.14513,-0.34706 0.18731,-0.72329 0.19034,-1.09629 0.0102,-0.29016 -0.0599,-0.56782 -0.17097,-0.83324 -0.0844,-0.19526 -0.22988,-0.34672 -0.36745,-0.50439 -0.1203,-0.14304 -0.25525,-0.27457 -0.40823,-0.3823 -0.0208,-0.0188 -0.0416,-0.0376 -0.0624,-0.0564 0,0 0.86058,0.34857 0.86058,0.34857 v 0 c 0.0216,0.0173 0.0432,0.0348 0.0648,0.0521 0.14383,0.11994 0.27656,0.25106 0.39478,0.39667 0.1418,0.16252 0.27919,0.32839 0.35455,0.53395 0.098,0.2772 0.1555,0.56196 0.14059,0.858 -0.0132,0.3842 -0.0544,0.77271 -0.20639,1.12981 -0.18998,0.40659 -0.47044,0.76577 -0.75356,1.11139 -0.28613,0.30957 -0.59053,0.6051 -0.94661,0.83447 0,0 -0.78173,-0.51434 -0.78173,-0.51434 z" />
      <ellipse
         style="fill:#ffffff;fill-opacity:1;stroke:#ffffff;stroke-width:0.527314;stroke-linecap:square;stroke-linejoin:round;stroke-miterlimit:4;stroke-dasharray:none;stroke-opacity:1;paint-order:stroke markers fill"
         id="path1538-7"
         cx="-104.00867"
         cy="91.808655"
         rx="2.8265777"
         ry="3.0121651"
         transform="scale(-1,1)" />
      <rect
         style="fill:#ffffff;fill-opacity:1;stroke:#ffffff;stroke-width:0.616;stroke-linecap:square;stroke-linejoin:round;stroke-miterlimit:4;stroke-dasharray:none;stroke-opacity:1;paint-order:stroke markers fill"
         id="rect1540-8"
         width="43.89986"
         height="1.7893611"
         x="-152.2641"
         y="91.114182"
         transform="scale(-1,1)" />
      <rect
         style="fill:#ffffff;fill-opacity:1;stroke:#ffffff;stroke-width:0.616;stroke-linecap:square;stroke-linejoin:round;stroke-miterlimit:4;stroke-dasharray:none;stroke-opacity:1;paint-order:stroke markers fill"
         id="rect1540-9-2"
         width="43.89986"
         height="1.7893611"
         x="91.114182"
         y="-152.2641"
         transform="rotate(90)" />
      <rect
         style="fill:#ffffff;fill-opacity:1;stroke:#ffffff;stroke-width:0.616;stroke-linecap:square;stroke-linejoin:round;stroke-miterlimit:4;stroke-dasharray:none;stroke-opacity:1;paint-order:stroke markers fill"
         id="rect1540-94"
         width="43.89986"
         height="1.7893611"
         x="10.935035"
         y="133.22467" />
      <rect
         style="fill:#ffffff;fill-opacity:1;stroke:#ffffff;stroke-width:0.616;stroke-linecap:square;stroke-linejoin:round;stroke-miterlimit:4;stroke-dasharray:none;stroke-opacity:1;paint-order:stroke markers fill"
         id="rect1540-94-7"
         width="43.89986"
         height="1.7893611"
         x="108.36423"
         y="133.22467" />
      <rect
         style="fill:#ffffff;fill-opacity:1;stroke:#ffffff;stroke-width:0.58;stroke-linecap:square;stroke-linejoin:round;stroke-miterlimit:4;stroke-dasharray:none;stroke-opacity:1;paint-order:stroke markers fill"
         id="rect1540-94-9"
         width="53.529331"
         height="1.7893611"
         x="54.834896"
         y="133.22467" />
    </g>
  </g>
</svg>
